<?xml version="1.0" encoding="UTF-8" standalone="no"?>
<svg
   xmlns:dc="http://purl.org/dc/elements/1.1/"
   xmlns:cc="http://creativecommons.org/ns#"
   xmlns:rdf="http://www.w3.org/1999/02/22-rdf-syntax-ns#"
   xmlns:svg="http://www.w3.org/2000/svg"
   xmlns="http://www.w3.org/2000/svg"
   width="1000"
   height="1000"
   viewBox="0 0 264.58333 264.58334"
   version="1.1"
   id="svg8">
  <defs
     id="defs2" />
  <metadata
     id="metadata5">
    <rdf:RDF>
      <cc:Work
         rdf:about="">
        <dc:format>image/svg+xml</dc:format>
        <dc:type
           rdf:resource="http://purl.org/dc/dcmitype/StillImage" />
        <dc:title></dc:title>
      </cc:Work>
    </rdf:RDF>
  </metadata>
  <g
     id="layer1">
    <g
       id="g912"
       transform="translate(10.2912,-15.548328)"
       style="fill:#ffffff">
      <g
         id="g905"
         transform="matrix(1,0,0,-1,-70.29549,366.26976)"
         style="fill:#ffffff">
        <path
           id="path833-4-1"
           style="fill:#ffffff;fill-opacity:1;stroke-width:2.64599;stroke-linecap:round"
           d="m 241.80989,152.75418 a 66.145835,66.145835 0 0 0 -66.01819,65.67558 h 33.07085 a 33.073818,33.073818 0 0 1 33.00987,-32.83882 33.073818,33.073818 0 0 1 0.0631,0 33.073818,33.073818 0 0 1 33.07291,32.83882 h 33.07085 a 66.145835,66.145835 0 0 0 -66.14376,-65.67558 66.145835,66.145835 0 0 0 -0.12557,0 z m -99.21668,1e-5 a 66.145835,66.145835 0 0 0 -66.018191,65.67557 h 33.070851 a 33.073818,33.073818 0 0 1 33.00987,-32.83882 33.073818,33.073818 0 0 1 0.0631,0 33.073818,33.073818 0 0 1 33.07291,32.83882 h 33.07085 a 66.145835,66.145835 0 0 0 -66.14376,-65.67557 66.145835,66.145835 0 0 0 -0.12557,0 z m 99.21668,131.35115 A 66.145835,66.145835 0 0 1 175.7917,218.42976 h 33.07085 a 33.073818,33.073818 0 0 0 33.00987,32.83882 33.073818,33.073818 0 0 0 0.0631,0 33.073818,33.073818 0 0 0 33.07291,-32.83882 h 33.07085 a 66.145835,66.145835 0 0 1 -66.14376,65.67558 66.145835,66.145835 0 0 1 -0.12557,0 z m -99.21668,0 A 66.145835,66.145835 0 0 1 76.575015,218.42976 h 33.070855 a 33.073818,33.073818 0 0 0 33.00987,32.83882 33.073818,33.073818 0 0 0 0.0631,0 33.073818,33.073818 0 0 0 33.07291,-32.83882 h 33.07085 a 66.145835,66.145835 0 0 1 -66.14376,65.67558 66.145835,66.145835 0 0 1 -0.12558,0 z" />
      </g>
    </g>
  </g>
</svg>
