<?xml version="1.0" encoding="UTF-8" standalone="no"?>
<svg
   xmlns:dc="http://purl.org/dc/elements/1.1/"
   xmlns:cc="http://creativecommons.org/ns#"
   xmlns:rdf="http://www.w3.org/1999/02/22-rdf-syntax-ns#"
   xmlns:svg="http://www.w3.org/2000/svg"
   xmlns="http://www.w3.org/2000/svg"
   width="1730.297"
   height="310.12299"
   viewBox="0 0 457.80773 82.053378"
   version="1.1"
   id="svg8">
  <defs
     id="defs2" />
  <metadata
     id="metadata5">
    <rdf:RDF>
      <cc:Work
         rdf:about="">
        <dc:format>image/svg+xml</dc:format>
        <dc:type
           rdf:resource="http://purl.org/dc/dcmitype/StillImage" />
        <dc:title></dc:title>
      </cc:Work>
    </rdf:RDF>
  </metadata>
  <g
     id="layer1">
    <g
       id="g965">
      <path
         id="path48"
         style="font-style:normal;font-variant:normal;font-weight:900;font-stretch:normal;font-size:110.584px;line-height:69.115px;font-family:'Red Hat Display';-inkscape-font-specification:'Red Hat Display, Heavy';font-variant-ligatures:normal;font-variant-caps:normal;font-variant-numeric:normal;font-variant-east-asian:normal;text-align:start;letter-spacing:0px;word-spacing:0px;writing-mode:lr-tb;text-anchor:start;fill:#007bff;fill-opacity:1;stroke:none;stroke-width:0.264582"
         d="m 403.84292,74.423075 8.51498,-12.053667 q 5.5292,3.317523 10.06315,4.865704 4.53395,1.437591 8.95731,1.437591 4.42337,0 6.9668,-1.216421 2.65401,-1.327011 2.65401,-3.428113 0,-1.658761 -1.43759,-2.654012 -1.43759,-1.105841 -4.53394,-1.548181 l -11.61133,-1.769342 q -8.62556,-1.327011 -13.27009,-5.750375 -4.64454,-4.533936 -4.64454,-11.721902 0,-8.846729 6.74563,-13.933597 6.74563,-5.086868 18.46754,-5.086868 6.3033,0 12.60659,1.879929 6.41388,1.769346 11.8325,5.197453 l -8.51497,11.500753 q -4.75512,-2.76461 -9.0679,-3.981035 -4.31278,-1.327009 -8.62556,-1.327009 -3.42811,0 -5.5292,1.216425 -2.10111,1.105841 -2.10111,2.985778 0,1.769341 1.54819,2.875182 1.54817,0.995261 5.30803,1.548182 l 11.61133,1.769341 q 8.62556,1.216421 13.27009,5.750357 4.75512,4.423364 4.75512,11.27958 0,4.202194 -1.99052,7.851467 -1.99051,3.649283 -5.5292,6.3033 -3.4281,2.65401 -8.29381,4.20219 -4.8657,1.43759 -10.50549,1.43759 -8.2938,0 -15.48177,-1.87993 -7.07739,-1.99051 -12.16425,-5.75037 z m -11.23335,-1.216418 q -5.5292,4.644528 -11.39016,6.745628 -5.75037,2.10109 -13.04892,2.10109 -6.63505,0 -12.496,-2.32226 -5.86096,-2.32227 -10.17374,-6.413877 -4.20219,-4.091614 -6.74563,-9.620819 -2.43285,-5.639785 -2.43285,-11.94308 0,-6.303286 2.32226,-11.83249 2.43286,-5.639789 6.52447,-9.731401 4.09161,-4.091611 9.62082,-6.413877 5.63978,-2.322266 12.05366,-2.322266 6.41387,0 11.8325,2.43285 5.41862,2.43285 9.28907,6.635045 3.98102,4.202196 6.1927,10.173737 2.21168,5.860957 2.21168,12.717163 v 4.423364 h -41.6902 q 1.76935,4.091614 5.5292,6.745626 3.75987,2.543442 8.84673,2.543442 3.64927,0 6.63505,-1.105841 2.98577,-1.216431 5.08687,-3.317523 z M 366.51173,36.050405 q -4.42337,0 -7.63031,2.43285 -3.20693,2.43285 -4.53394,6.856214 h 24.43908 q -1.43759,-4.202195 -4.75512,-6.74563 -3.20693,-2.543434 -7.51971,-2.543434 z m -37.66295,16.034684 q 0,6.303296 -2.43285,11.8325 -2.32226,5.418615 -6.41387,9.510229 -4.09162,3.981027 -9.7314,6.303297 -5.52921,2.32226 -11.8325,2.32226 -4.09162,0 -7.96206,-0.99526 -3.87044,-1.10584 -7.18796,-3.09635 v 3.31752 H 265.59468 V 3.8704415 L 283.50931,-1.497406e-6 V 26.871934 q 3.42811,-2.43285 7.29855,-3.649275 3.98103,-1.216425 8.18322,-1.216425 6.19271,0 11.61133,2.322266 5.5292,2.322266 9.51024,6.413878 4.0916,4.091611 6.41387,9.620816 2.32226,5.418621 2.32226,11.721895 z m -32.95405,-14.81825 q -3.75987,0 -6.85622,1.216425 -3.09635,1.105841 -5.5292,3.428107 v 20.458037 q 2.32227,2.101102 5.5292,3.317523 3.20694,1.216431 6.85622,1.216431 6.52446,0 10.94783,-4.202204 4.42336,-4.312773 4.42336,-10.616069 0,-6.303274 -4.53395,-10.50547 -4.42337,-4.31278 -10.83724,-4.31278 z M 166.55755,82.053375 v -58.49897 h 17.91463 v 3.75986 q 3.09635,-2.43285 6.74563,-3.649275 3.75986,-1.216426 7.85146,-1.216426 5.41863,0 9.84199,2.211682 4.53394,2.101098 7.51972,5.860957 3.53869,-3.870443 8.40439,-5.971541 4.8657,-2.101098 10.61607,-2.101098 9.95257,0 16.25587,6.635046 6.41387,6.635046 6.41387,16.919367 V 82.053375 H 240.20656 V 48.435827 q 0,-4.755116 -2.65401,-7.630303 -2.54345,-2.98577 -6.85622,-2.98577 -2.98577,0 -5.41862,1.216425 -2.43286,1.105841 -4.2022,3.206939 0.11058,0.884672 0.11058,1.879929 0.11059,0.884673 0.11059,1.87993 V 82.053375 H 203.38206 V 48.435827 q 0,-4.755116 -2.65403,-7.630303 -2.54343,-2.98577 -6.8562,-2.98577 -2.98577,0 -5.41863,1.105841 -2.32226,0.995257 -3.98102,3.096354 v 40.031426 z m -11.23334,-8.846718 q -5.5292,4.644528 -11.39017,6.745628 -5.75036,2.10109 -13.04892,2.10109 -6.63504,0 -12.496,-2.32226 -5.86095,-2.32227 -10.17374,-6.413877 -4.20219,-4.091614 -6.74562,-9.620819 -2.432852,-5.639795 -2.432852,-11.94309 0,-6.303285 2.322262,-11.832489 2.43285,-5.639789 6.52446,-9.731401 4.09162,-4.091611 9.62082,-6.413877 5.63979,-2.322266 12.05366,-2.322266 6.41389,0 11.8325,2.43285 5.41863,2.43285 9.28907,6.635045 3.98102,4.202196 6.19271,10.173737 2.21168,5.860957 2.21168,12.717162 v 4.423364 h -41.69021 q 1.76935,4.091614 5.52921,6.745636 3.75986,2.543442 8.84672,2.543442 3.64929,0 6.63505,-1.105841 2.98577,-1.216431 5.08687,-3.317533 z M 129.22636,36.050396 q -4.42336,0 -7.63029,2.43285 -3.20695,2.43285 -4.53396,6.856214 h 24.43909 q -1.4376,-4.202195 -4.75512,-6.74563 -3.20693,-2.543434 -7.51972,-2.543434 z M -2.1214386e-4,82.053375 V 23.554396 H 17.914418 v 3.75986 q 3.09635,-2.43285 6.74562,-3.649275 3.75986,-1.216426 7.85147,-1.216426 5.41862,0 9.84199,2.211682 4.53394,2.101098 7.51971,5.860957 3.5387,-3.870443 8.4044,-5.971541 4.86569,-2.101098 10.61607,-2.101098 9.95257,0 16.25586,6.635046 6.41388,6.635046 6.41388,16.919365 V 82.053375 H 73.648788 V 48.435818 q 0,-4.755111 -2.65401,-7.630303 -2.54344,-2.98577 -6.85621,-2.98577 -2.98578,0 -5.41863,1.216425 -2.43285,1.105841 -4.20219,3.206939 0.11058,0.884672 0.11058,1.879928 0.11059,0.884678 0.11059,1.879929 V 82.053375 H 36.824288 V 48.435818 q 0,-4.755111 -2.65402,-7.630303 -2.54343,-2.98577 -6.85621,-2.98577 -2.98577,0 -5.41862,1.105841 -2.32226,0.995257 -3.98102,3.096354 v 40.031435 z" />
    </g>
  </g>
</svg>
